<?xml version="1.0" standalone="no"?>
<!DOCTYPE svg PUBLIC "-//W3C//DTD SVG 20010904//EN"
 "http://www.w3.org/TR/2001/REC-SVG-20010904/DTD/svg10.dtd">
<svg version="1.0" xmlns="http://www.w3.org/2000/svg"
 width="700.000000pt" height="700.000000pt" viewBox="0 0 700.000000 700.000000"
 preserveAspectRatio="xMidYMid meet">
<g transform="translate(0.000000,700.000000) scale(0.100000,-0.100000)"
fill="#000000" stroke="none">
<path d="M293 6883 c4 -7 0 -16 -9 -21 -10 -6 -15 -17 -12 -28 3 -11 539 -821
1191 -1800 l1187 -1782 2 -1568 3 -1569 845 0 845 0 5 1575 5 1575 1196 1790
c657 985 1198 1797 1201 1806 3 9 1 16 -5 17 -11 1 -1170 4 -1193 3 -6 -1
-337 -489 -735 -1086 l-723 -1085 -597 0 -598 0 -157 238 c-371 559 -1277
1918 -1284 1925 -7 8 -505 12 -780 7 -52 -1 -99 -1 -105 0 -5 1 -12 2 -15 1
-27 -8 -248 -6 -259 3 -11 8 -13 8 -8 -1z"/>
<path d="M3408 6625 c-2 -2 -28 -6 -58 -10 -109 -13 -263 -76 -363 -148 -431
-309 -486 -925 -117 -1298 127 -129 276 -212 435 -243 17 -4 41 -9 55 -11 37
-8 198 -8 255 0 51 7 159 40 230 70 109 46 271 182 345 289 121 178 175 410
144 621 -51 338 -308 621 -639 704 -78 19 -275 37 -287 26z"/>
</g>
</svg>
